<?xml version="1.0" encoding="UTF-8"?>
<svg version="1.1" xmlns="http://www.w3.org/2000/svg" width="2000" height="1500">
<path d="M0 0 C660 0 1320 0 2000 0 C2000 495 2000 990 2000 1500 C1340 1500 680 1500 0 1500 C0 1005 0 510 0 0 Z " fill="#006A4E" transform="translate(0,0)"/>
<path d="M0 0 C1.77543938 -0.01051392 1.77543938 -0.01051392 3.58674622 -0.02124023 C7.46758045 -0.03872806 11.34767502 -0.02722936 15.22851562 -0.01367188 C17.9441384 -0.01456494 20.65974838 -0.02024893 23.37536621 -0.02526855 C29.05419811 -0.03251879 34.73282102 -0.02302676 40.41162109 -0.00390625 C46.95047872 0.01785767 53.48883723 0.01080441 60.02768278 -0.01121187 C65.67053569 -0.02944129 71.3132395 -0.03188763 76.95611238 -0.0214572 C80.31382784 -0.01526329 83.67112368 -0.01587312 87.02885437 -0.02760315 C90.77608421 -0.03782272 94.52237118 -0.02219018 98.26953125 0 C99.36284256 -0.00809692 100.45615387 -0.01619385 101.58259583 -0.02453613 C113.7065465 0.10769574 123.84114064 4.33820494 132.79492188 12.48242188 C142.53512646 22.55033428 144.38407984 33.44383391 144.26586914 47.02563477 C144.27101965 48.54649181 144.2783094 50.06734286 144.28755188 51.58818054 C144.30592888 55.68334806 144.29321573 59.77785719 144.27346158 63.87299657 C144.25696245 68.17863816 144.26590339 72.48424172 144.27098083 76.78990173 C144.27548881 84.01637169 144.25971154 91.2425817 144.23168945 98.46899414 C144.19963125 106.80000469 144.19966224 115.130547 144.21690422 123.46159083 C144.23281743 131.50805227 144.22600581 139.55434357 144.20896721 147.60079765 C144.20213047 151.01083395 144.20309414 154.42073248 144.21051216 157.83076668 C144.21822455 161.85214639 144.20588924 165.87299893 144.17866325 169.89428902 C144.17183033 171.36192766 144.17162614 172.82961603 144.17887878 174.29725266 C144.24252868 188.86585596 141.03188379 198.63484349 131.01367188 209.23242188 C121.3012799 218.38582726 109.8384072 219.66299082 97.11254883 219.69458008 C95.95891342 219.70115128 94.80527802 219.70772247 93.61668396 219.7144928 C89.80630421 219.7341716 85.99596377 219.74587611 82.18554688 219.75585938 C80.88087149 219.7599349 79.5761961 219.76401043 78.23198509 219.76820946 C72.03779561 219.78723686 65.84361786 219.80147272 59.64940482 219.80982143 C52.52650076 219.81958351 45.40390829 219.84588606 38.28111392 219.88632232 C32.75729733 219.91659285 27.23356953 219.93130061 21.70967168 219.93460244 C18.41892635 219.93694054 15.1285887 219.94774839 11.83791542 219.97106361 C8.1596787 219.9955061 4.48224876 219.99448014 0.80395508 219.98754883 C-0.26915924 220.00035889 -1.34227356 220.01316895 -2.44790649 220.02636719 C-14.47570776 219.94417563 -24.70661901 215.68251677 -33.52539062 207.51757812 C-41.84849454 198.80554412 -45.4649441 189.18868522 -45.5124054 177.22018433 C-45.5195607 175.97556931 -45.526716 174.73095428 -45.53408813 173.44862366 C-45.53692787 172.08212305 -45.53963966 170.71562218 -45.54223633 169.34912109 C-45.54850783 167.89974304 -45.55515524 166.45036657 -45.56214905 165.00099182 C-45.58311201 160.25392764 -45.5935449 155.50686343 -45.60351562 150.75976562 C-45.60756623 149.11999622 -45.61168325 147.48022699 -45.61586571 145.84045792 C-45.63490118 138.13362498 -45.64913504 130.42680151 -45.65747768 122.7199496 C-45.66724094 113.84931755 -45.69354349 104.97893563 -45.73397857 96.10839164 C-45.76422499 89.23510184 -45.77895464 82.36188339 -45.78225869 75.48852837 C-45.78459962 71.39128562 -45.79343439 67.29431058 -45.81871986 63.19713974 C-45.84215534 59.33760549 -45.84617247 55.4785123 -45.83595848 51.61892509 C-45.83546673 50.21134529 -45.84167938 48.8037426 -45.85551453 47.3962307 C-45.98572442 33.35069756 -42.97657335 22.0419113 -33.36523438 11.51757812 C-23.61783749 2.82089566 -12.83465885 -0.09505184 0 0 Z " fill="#DFEFE4" transform="translate(822.365234375,677.482421875)"/>
<path d="M0 0 C43 0 43 0 51.8125 7.875 C53.16803409 10.37481612 54.52472105 12.87842184 55.71728516 15.45996094 C57.88731253 19.7570612 60.95940427 23.29436354 64 27 C65.16580408 28.49009981 66.32727016 29.9836037 67.484375 31.48046875 C69.86884492 34.54631094 72.25438667 37.61131529 74.640625 40.67578125 C80.57471408 48.29801637 86.4927877 55.9313945 92.375 63.59375 C95.56627975 67.74241368 98.784213 71.87032481 102 76 C106.01465625 81.15557352 110.02101023 86.31684228 114 91.5 C120.29429617 99.69698374 126.65013322 107.84603994 133 116 C140.14879829 125.17988011 147.28995283 134.36454382 154.375 143.59375 C157.56627975 147.74241368 160.784213 151.87032481 164 156 C168.01465625 161.15557352 172.02101023 166.31684228 176 171.5 C182.29429617 179.69698374 188.65013322 187.84603994 195 196 C197.41709753 199.10383153 199.83369001 202.20805535 202.25 205.3125 C202.77948242 205.99207764 203.30896484 206.67165527 203.85449219 207.37182617 C208.93063709 213.89375761 213.96069247 220.44890022 219 227 C219.33 152.09 219.66 77.18 220 0 C233.86 0 247.72 0 262 0 C262 97.35 262 194.7 262 295 C247.81 295 233.62 295 219 295 C216.03 291.04 213.06 287.08 210 283 C207.77918764 280.11772258 205.55349227 277.24136204 203.3125 274.375 C202.10545154 272.82683634 200.89842082 271.27865884 199.69140625 269.73046875 C199.08312988 268.95106934 198.47485352 268.17166992 197.84814453 267.36865234 C194.81209213 263.47753208 191.7806605 259.58282058 188.75 255.6875 C188.16259033 254.93259277 187.57518066 254.17768555 186.9699707 253.39990234 C182.83569136 248.0833203 178.72609942 242.74847161 174.625 237.40625 C171.43372025 233.25758632 168.215787 229.12967519 165 225 C160.98534375 219.84442648 156.97898977 214.68315772 153 209.5 C146.70570383 201.30301626 140.34986678 193.15396006 134 185 C126.85120171 175.82011989 119.71004717 166.63545618 112.625 157.40625 C109.43372025 153.25758632 106.215787 149.12967519 103 145 C98.98534375 139.84442648 94.97898977 134.68315772 91 129.5 C84.70570383 121.30301626 78.34986678 113.15396006 72 105 C69.58290247 101.89616848 67.16613949 98.79207737 64.75 95.6875 C64.16976074 94.94193848 63.58952148 94.19637695 62.99169922 93.42822266 C58.66800429 87.86848423 54.36886348 82.29041052 50.0859375 76.69921875 C48.08556144 74.11071714 46.04360704 71.5545088 44 69 C43.67 143.58 43.34 218.16 43 295 C28.81 295 14.62 295 0 295 C0 197.65 0 100.3 0 0 Z " fill="#DFEFE4" transform="translate(444,602)"/>
<path d="M0 0 C1.29813126 -0.00426498 2.59626251 -0.00852997 3.93373108 -0.01292419 C5.37051395 -0.01257469 6.80729679 -0.01211316 8.24407959 -0.0115509 C9.75876447 -0.01454345 11.2734486 -0.0179462 12.78813171 -0.02172852 C16.90194124 -0.03056446 21.01572997 -0.0329065 25.12954807 -0.0335443 C27.70124337 -0.03425521 30.27293339 -0.03639033 32.84462738 -0.03904152 C41.82104325 -0.04829464 50.79744427 -0.05237658 59.77386475 -0.05158997 C68.13305193 -0.05098966 76.49217447 -0.06153235 84.8513453 -0.07733363 C92.03366023 -0.09042506 99.21595409 -0.09577317 106.39828086 -0.09513456 C110.68536637 -0.09487998 114.97239448 -0.09770891 119.25946808 -0.10831261 C123.29451598 -0.1180202 127.32945193 -0.11805457 131.36450386 -0.11079597 C132.8414762 -0.10975333 134.31845561 -0.11209393 135.79541588 -0.11815643 C149.40743435 -0.1703887 160.82493201 1.9642721 172.00091553 10.38371277 C180.75930134 19.34578197 186.14576489 29.71391476 186.14160156 42.3934021 C186.12095642 43.34282181 186.10031128 44.29224152 186.07904053 45.27043152 C186.07338074 46.27588516 186.06772095 47.28133881 186.06188965 48.31726074 C186.03974257 51.48575752 185.98958865 54.65306574 185.93841553 57.82121277 C185.91832247 59.98721191 185.90007666 62.15322901 185.88372803 64.31925964 C185.84337368 69.59155506 185.76504288 74.86132526 185.68841553 80.13371277 C171.82841553 80.13371277 157.96841553 80.13371277 143.68841553 80.13371277 C143.68841553 67.59371277 143.68841553 55.05371277 143.68841553 42.13371277 C96.49841553 42.13371277 49.30841553 42.13371277 0.68841553 42.13371277 C0.68841553 70.18371277 0.68841553 98.23371277 0.68841553 127.13371277 C11.53329834 127.08730652 22.37818115 127.04090027 33.55169678 126.99308777 C40.42865372 126.97264583 47.3055886 126.95322395 54.18255615 126.93840027 C65.0941726 126.91469042 76.00566524 126.88685774 86.91717529 126.83195496 C94.86492882 126.79198392 102.81258165 126.76625553 110.7604329 126.75735879 C114.96561701 126.75216135 119.17051315 126.74001633 123.37560463 126.71079254 C127.34091325 126.68346077 131.30581774 126.67530324 135.27121162 126.68128204 C136.71952772 126.68018969 138.1678586 126.67234196 139.61609268 126.65689087 C152.91155942 126.52210796 162.8155106 128.97001462 172.68841553 138.13371277 C182.32677156 147.65755368 185.83892106 157.87739552 185.98168945 171.3368988 C185.9803299 172.6011972 185.9803299 172.6011972 185.97894287 173.89103699 C185.9856601 174.80956451 185.99237732 175.72809204 185.9992981 176.67445374 C186.01813244 179.67915919 186.02219459 182.68363964 186.02435303 185.68840027 C186.03079002 187.79770496 186.03751904 189.90700877 186.04452515 192.01631165 C186.05646076 196.42574635 186.0602097 200.83510291 186.059021 205.24455261 C186.05881778 210.86848358 186.0861396 216.4919094 186.12056541 222.11572075 C186.14290162 226.46886964 186.14685651 230.82189811 186.14580154 235.17509842 C186.14814662 237.24734872 186.15690781 239.31960289 186.17246628 241.39179611 C186.28369559 257.73241352 184.96328585 270.39000613 173.68841553 283.13371277 C164.97445514 291.54473384 153.91921798 295.24342522 141.9979248 295.27415466 C141.02689123 295.27861135 141.02689123 295.27861135 140.03624082 295.28315806 C137.88089767 295.29178529 135.72561046 295.2933482 133.57025146 295.29484558 C132.0191079 295.29947798 130.46796547 295.30450321 128.91682434 295.30989075 C124.71209726 295.32297578 120.50738612 295.32945203 116.30264187 295.33390141 C113.67229182 295.33683833 111.04194608 295.34094428 108.41159821 295.34540558 C100.17189834 295.35907001 91.93220837 295.36874192 83.69249797 295.37260747 C74.19931037 295.3770863 64.70626688 295.39463049 55.21312308 295.42360806 C47.8625852 295.44526225 40.51208776 295.45531374 33.16151834 295.45664859 C28.77711451 295.4576939 24.39284635 295.46354334 20.00847626 295.4814682 C15.88143294 295.49801376 11.75462635 295.50007314 7.62756157 295.49132919 C6.11917166 295.49056229 4.61076868 295.49485548 3.10241127 295.50478745 C-11.23696849 295.59361421 -22.48331793 293.14731818 -33.38580322 283.25090027 C-42.41492307 273.5754443 -45.64753588 262.52491006 -45.50689697 249.60636902 C-45.50406708 248.61745163 -45.50123718 247.62853424 -45.49832153 246.60964966 C-45.4871859 243.47171082 -45.4620935 240.33406438 -45.43658447 237.19621277 C-45.42654612 235.0601492 -45.41742177 232.92408113 -45.40924072 230.78800964 C-45.38897548 225.56970922 -45.34981395 220.35203575 -45.31158447 215.13371277 C-31.45158447 215.13371277 -17.59158447 215.13371277 -3.31158447 215.13371277 C-3.31158447 227.67371277 -3.31158447 240.21371277 -3.31158447 253.13371277 C45.19841553 253.13371277 93.70841553 253.13371277 143.68841553 253.13371277 C143.68841553 225.41371277 143.68841553 197.69371277 143.68841553 169.13371277 C133.04849365 169.16851746 122.40857178 169.20332214 111.44622803 169.23918152 C104.70143417 169.25451198 97.95665297 169.26907829 91.21185303 169.28019714 C80.50868405 169.29798331 69.80558604 169.31886861 59.10247803 169.36003113 C51.30672172 169.38999804 43.5110231 169.40930305 35.7152108 169.41597825 C31.59003738 169.41987819 27.46502897 169.42899941 23.3399086 169.45090294 C19.45098056 169.47138351 15.56228427 169.4775234 11.67330742 169.47303581 C10.25199432 169.47385587 8.83067285 169.47975234 7.40940666 169.49132919 C-7.59301739 169.60745617 -18.89714404 166.33161246 -30.06158447 156.00871277 C-39.15407072 146.48094792 -41.45009269 136.23545778 -41.48858643 123.53923035 C-41.49515762 122.59041992 -41.50172882 121.6416095 -41.50849915 120.66404724 C-41.52815016 117.53544524 -41.53987654 114.40689107 -41.54986572 111.27824402 C-41.55394125 110.20525244 -41.55801678 109.13226086 -41.56221581 108.02675438 C-41.58304174 102.34715851 -41.59735841 96.66758655 -41.60675049 90.98796082 C-41.61780683 85.14189397 -41.6522082 79.29620857 -41.69192219 73.45027637 C-41.71814661 68.93676069 -41.72644751 64.42333514 -41.73003197 59.90974998 C-41.7348829 57.75572318 -41.74645393 55.6017 -41.76506996 53.44774818 C-41.89756578 37.10143721 -40.74771226 24.79021908 -29.31158447 12.13371277 C-20.88053514 4.8159421 -11.21100623 0.01664199 0 0 Z " fill="#E0F0E5" transform="translate(1079.3115844726563,601.8662872314453)"/>
<path d="M0 0 C70.95 0 141.9 0 215 0 C215 13.86 215 27.72 215 42 C157.91 42 100.82 42 42 42 C42 70.05 42 98.1 42 127 C90.51 127 139.02 127 189 127 C189 140.86 189 154.72 189 169 C140.49 169 91.98 169 42 169 C42 196.72 42 224.44 42 253 C99.09 253 156.18 253 215 253 C215 266.86 215 280.72 215 295 C144.05 295 73.1 295 0 295 C0 197.65 0 100.3 0 0 Z " fill="#E0F0E5" transform="translate(1341,602)"/>
<path d="M0 0 C35.64 0 71.28 0 108 0 C108 45.21 108 90.42 108 137 C72.36 137 36.72 137 0 137 C0 91.79 0 46.58 0 0 Z " fill="#006A4E" transform="translate(818,719)"/>
<path d="M0 0 C6.27 0.33 12.54 0.66 19 1 C18.43122151 14.77865903 16.92462722 28.22641118 15 41.875 C7.91749618 92.64956961 10.48339287 142.22354804 42.52734375 184.8515625 C46.10258378 189.47045407 49.96224143 193.78230567 54 198 C54.67160156 198.73476562 55.34320312 199.46953125 56.03515625 200.2265625 C77.10713261 222.51953188 109.85973064 237.64709191 140.55078125 239.17700195 C184.80510414 239.89791544 223.23269991 230.53580283 256 199 C264.85041731 190.02706713 271.81192849 179.94258201 278 169 C278.35545898 168.37432129 278.71091797 167.74864258 279.07714844 167.10400391 C291.28909343 145.19703592 298.36799054 120.07813529 299 95 C299.03109863 94.16726563 299.06219727 93.33453125 299.09423828 92.4765625 C299.7090129 74.83036837 297.51129756 58.20144512 293.96484375 40.9453125 C292.91248991 35.74051128 292.15681726 30.5097696 291.4375 25.25 C291.18683211 23.44262026 290.9355466 21.63532606 290.68359375 19.828125 C290.56741699 18.98443359 290.45124023 18.14074219 290.33154297 17.27148438 C290.06723998 15.46067802 289.74794329 13.6579232 289.41015625 11.859375 C288.89581813 8.27370351 289 4.62237267 289 1 C294.94 1 300.88 1 307 1 C308.46917292 8.08167121 309.68728096 15.15962717 310.75 22.3125 C311.93439529 30.26745476 313.19429563 38.19769267 314.59375 46.1171875 C317.5877306 63.19963475 320.1251763 79.59225721 319 97 C318.96374512 97.80469727 318.92749023 98.60939453 318.89013672 99.43847656 C317.87486076 121.15922893 311.9740301 143.23014421 303 163 C302.54222168 164.01078613 302.54222168 164.01078613 302.07519531 165.04199219 C294.5591941 181.34353679 285.19756515 195.82825328 273 209 C271.69095703 210.43279297 271.69095703 210.43279297 270.35546875 211.89453125 C248.36612777 234.93883311 218.86556906 249.34168739 188 256 C186.79666016 256.26441895 185.59332031 256.52883789 184.35351562 256.80126953 C174.44458312 258.82809664 164.91779075 259.60193475 154.8125 259.5625 C154.03985809 259.5620166 153.26721619 259.5615332 152.47116089 259.56103516 C109.49646233 259.37615751 72.4926138 242.30253662 41 214 C39.98679687 213.09701172 39.98679687 213.09701172 38.953125 212.17578125 C23.35438473 197.43125771 12.33880068 177.54611135 4 158 C3.72317383 157.3591748 3.44634766 156.71834961 3.16113281 156.05810547 C-3.41230781 140.58395664 -6.66721074 124.18033108 -8.8125 107.5625 C-8.9364917 106.64863525 -9.0604834 105.73477051 -9.18823242 104.79321289 C-11.7053323 83.12612098 -9.06097763 62.10398561 -5.88623047 40.69720459 C-5.34135414 36.99905171 -4.81511202 33.29824899 -4.28710938 29.59765625 C-3.359673 23.11451574 -2.41680501 16.63382595 -1.46192932 10.15466309 C-0.96646222 6.77095981 -0.48363076 3.38541531 0 0 Z " fill="#EEE0DB" transform="translate(806,925)"/>
<path d="M0 0 C8.53159936 6.43210064 13.67967639 16.55545132 15.99609375 26.75390625 C16.26035156 27.72328125 16.52460937 28.69265625 16.796875 29.69140625 C19.71301113 40.52671775 20.15872085 50.94111555 20.12109375 62.12890625 C20.12496094 63.27101563 20.12882812 64.413125 20.1328125 65.58984375 C20.1268327 70.8520715 20.019086 76.04233405 19.51171875 81.28125 C17.23485369 106.16676979 16.98869855 132.64329451 23.99609375 156.75390625 C24.1883252 157.4603125 24.38055664 158.16671875 24.57861328 158.89453125 C32.52988851 187.7720849 49.42236104 213.48364204 68.99609375 235.75390625 C69.76953125 236.63949219 70.54296875 237.52507812 71.33984375 238.4375 C82.05223022 250.54337786 82.05223022 250.54337786 94.796875 260.3515625 C101.44309403 264.58956007 107.26931527 269.8123822 113.05859375 275.12890625 C113.64350586 275.66531738 114.22841797 276.20172852 114.83105469 276.75439453 C116.2405762 278.06515709 117.6213142 279.40674978 118.99609375 280.75390625 C118.99609375 281.08390625 118.99609375 281.41390625 118.99609375 281.75390625 C115.39048346 282.72592561 112.61369262 282.71950595 108.99609375 281.75390625 C104.36014156 278.60108294 100.54695598 274.33866317 96.62988281 270.36035156 C94.50532747 268.27135363 92.23225473 266.44343189 89.87109375 264.62890625 C76.18567291 253.94487067 63.63763787 241.44590947 52.99609375 227.75390625 C52.54121582 227.18075684 52.08633789 226.60760742 51.61767578 226.01708984 C43.30215053 215.51780153 36.35632694 204.53425144 29.99609375 192.75390625 C29.61437012 192.0470166 29.23264648 191.34012695 28.83935547 190.61181641 C15.62778393 165.84085473 8.95860012 140.55811543 8.76629829 112.49948692 C8.74959842 110.14654349 8.72635612 107.79374182 8.70140076 105.44087219 C8.63140923 98.75891445 8.57076778 92.07690126 8.51928711 85.39477539 C8.48716268 81.28412942 8.44581874 77.17365504 8.39909172 73.06315041 C8.38328308 71.51453594 8.37086681 69.96588235 8.36218452 68.41721153 C8.22203451 39.96742193 8.22203451 39.96742193 -3.56640625 14.9453125 C-5.29228322 13.34328319 -7.03578613 12.04447682 -9.00390625 10.75390625 C-9.59171875 10.34140625 -10.17953125 9.92890625 -10.78515625 9.50390625 C-18.3820984 5.16279645 -28.56178831 5.5109976 -37.00390625 6.75390625 C-43.50434231 8.93764649 -48.53803952 12.56384492 -53.00390625 17.75390625 C-53.60589844 18.35460937 -54.20789063 18.9553125 -54.828125 19.57421875 C-68.36613736 33.55060484 -71.53266865 50.92674064 -71.49853516 69.70947266 C-71.12460604 84.31176202 -67.08941711 98.32531463 -63.09106445 112.2878418 C-61.09942082 119.26735987 -59.29274255 126.29157857 -57.5206604 133.32937622 C-57.02860657 135.28094081 -56.53140637 137.2312057 -56.03393555 139.18139648 C-55.18411438 142.5731758 -54.36378838 145.96884016 -53.56719971 149.37335205 C-53.16962948 151.05353749 -52.76205274 152.73137037 -52.34735107 154.40740967 C-48.47631899 170.17259066 -47.32944084 184.93148948 -47.62890625 201.12890625 C-47.65300496 203.39052595 -47.67536864 205.65216478 -47.69604492 207.91381836 C-47.75272507 213.27936968 -47.84142197 218.64361286 -47.94927979 224.00836182 C-47.99695346 226.4044567 -48.03820806 228.80050628 -48.07568359 231.19677734 C-48.35436372 247.18212066 -49.94177153 262.90529853 -52.00390625 278.75390625 C-57.94390625 278.75390625 -63.88390625 278.75390625 -70.00390625 278.75390625 C-69.59572205 270.59022222 -69.18086957 262.54100977 -68.06640625 254.44140625 C-62.30349828 211.03334279 -63.77179221 169.54399755 -75.96435547 127.43164062 C-77.62831495 121.54486618 -79.13049838 115.61955717 -80.61376953 109.68505859 C-81.13062523 107.622045 -81.65503203 105.56104192 -82.1796875 103.5 C-88.21057826 79.60646559 -91.91818896 53.37024541 -80.00390625 30.75390625 C-79.15892578 29.14902344 -79.15892578 29.14902344 -78.296875 27.51171875 C-69.78956854 13.12699915 -57.53421782 2.78332133 -42.00390625 -3.24609375 C-41.25109375 -3.56578125 -40.49828125 -3.88546875 -39.72265625 -4.21484375 C-26.48111707 -9.11239934 -11.82089129 -7.35061271 0 0 Z " fill="#ECDFDA" transform="translate(1025.00390625,291.24609375)"/>
<path d="M0 0 C-1.48518799 4.04301175 -3.42877998 7.61146256 -5.625 11.3125 C-6.25664063 12.38113281 -6.88828125 13.44976563 -7.5390625 14.55078125 C-8.02117187 15.35902344 -8.50328125 16.16726563 -9 17 C-12.94875813 15.51280538 -16.58645393 13.66217306 -20.3125 11.6875 C-43.89154198 -0.43868296 -72.5504519 -1.83898022 -97.70996094 6.21289062 C-104.02762839 8.38433624 -110.05298557 10.96076679 -116 14 C-116.8979126 14.45415283 -116.8979126 14.45415283 -117.81396484 14.91748047 C-128.84697284 20.59787079 -139.66083204 27.64595834 -147.62890625 37.26171875 C-157.75489994 49.20183265 -157.75489994 49.20183265 -166.12890625 50.01953125 C-171.79632279 50.16389365 -177.38590212 49.76743714 -183 49 C-178.00740813 41.20961152 -172.38088137 34.66808783 -166 28 C-164.77410156 26.69482422 -164.77410156 26.69482422 -163.5234375 25.36328125 C-120.20047071 -19.58253283 -54.18589224 -31.18321153 0 0 Z " fill="#EDDFDB" transform="translate(1023,600)"/>
<path d="M0 0 C5.28251713 4.73741686 9.35252308 10.14392312 10.3125 17.34375 C10.70771382 25.34682984 8.1273355 31.50895492 3.3125 37.8125 C-1.3899793 42.98282801 -8.62359529 45.57027576 -15.4375 46.4375 C-22.31459493 46.32309361 -29.19425411 42.76797624 -34.03125 37.99609375 C-40.08655397 30.17465946 -41.02100018 22.76467189 -40 13 C-37.77064705 5.60850454 -32.4495683 0.92776478 -26 -3 C-16.5814576 -6.86832992 -8.32735725 -5.69838992 0 0 Z " fill="#EADED9" transform="translate(987,1085)"/>
<path d="M0 0 C0.70487549 0.00241699 1.40975098 0.00483398 2.13598633 0.00732422 C9.59375887 0.26990371 13.60464205 3.02499468 18.73046875 8.0859375 C24.22066756 14.17184704 25.75831098 19.48491089 25.5390625 27.52734375 C24.75887991 34.26292007 21.52733396 41.22545176 16.1875 45.5625 C9.58117463 49.60326212 2.93396255 52.17200418 -4.8125 50.5625 C-14.29844183 47.25624651 -19.74860919 42.69028162 -24.1875 33.8125 C-25.6037129 26.44819291 -26.05594573 19.00920123 -22.14453125 12.375 C-16.34030688 4.47716977 -10.09802076 -0.03604291 0 0 Z " fill="#ECDFDA" transform="translate(871.8125,957.4375)"/>
<path d="M0 0 C1 1 1 1 1.0625 4.5625 C1.041875 5.696875 1.02125 6.83125 1 8 C0.09378906 8.40089844 -0.81242187 8.80179688 -1.74609375 9.21484375 C-10.9440848 13.44381969 -17.24459438 18.29767554 -23.78515625 26.140625 C-31.79477788 35.70108453 -41.51329802 41.02288206 -53.99609375 42.30859375 C-65.2457205 42.72997591 -75.08144448 39.9295835 -85.7644043 36.66430664 C-94.86886746 33.95891795 -104.55646585 33.32636594 -113.3125 37.4375 C-121.96879148 42.40706654 -128.48483033 49.37251634 -135.125 56.6875 C-141.70528181 63.92664135 -147.09224467 69.23075798 -157 71 C-157 71.99 -157 72.98 -157 74 C-159.86724686 73.42655063 -160.8614515 73.1385485 -163 71 C-163.25 68.5 -163.25 68.5 -163 66 C-161 64 -161 64 -157.3125 62.75 C-149.15671425 59.7575894 -144.61421548 53.40137378 -139.3046875 46.8046875 C-130.64975207 36.27207117 -119.33674881 26.11748636 -105.2421875 24.59375 C-93.75107171 24.18825967 -83.19161651 26.121607 -72.04833984 28.86523438 C-62.30309427 31.2086577 -52.33894556 33.10901481 -43.0703125 28.30859375 C-37.5573374 24.82397742 -33.3242221 20.40270991 -29.02978516 15.52709961 C-23.93075137 9.75723361 -18.97237185 5.40871513 -12 2 C-11.00806641 1.47792969 -11.00806641 1.47792969 -9.99609375 0.9453125 C-6.32808697 -0.84511845 -3.8853217 -1.37129001 0 0 Z " fill="#EADED9" transform="translate(1068,1025)"/>
<path d="M0 0 C5.0513504 4.94022069 8.13990603 8.44872435 8.3125 15.625 C8.24234576 22.13375463 7.05853275 26.80570992 2.50390625 31.5625 C-3.08556671 36.46897003 -8.30581624 36.46890883 -15.47265625 36.40234375 C-20.7126442 35.80464856 -23.61299155 33.96569331 -27 30 C-31.05425911 24.78738115 -31.68704072 19.40124997 -31.44921875 12.90625 C-30.5138274 6.85467464 -27.6362323 3.30230734 -22.9375 -0.4375 C-15.5611301 -4.36110101 -7.20938098 -4.27222577 0 0 Z " fill="#EDDFDB" transform="translate(1021,1010)"/>
<path d="M0 0 C3.68289596 1.28249822 6.29630083 3.22820091 8.9375 6.125 C10.75769653 11.05023766 10.91989309 16.05962743 9.34375 21.09765625 C7.68821282 24.45868216 5.94933186 26.030206 2.75 27.9375 C-2.8850552 29.53409897 -6.91591836 30.10102426 -12.3125 27.25 C-15.75322428 24.36939363 -17.58195956 22.25412132 -19 18 C-19.50201239 11.87544882 -19.09928344 8.87482354 -15 4 C-10.67942406 -0.82887899 -6.11206047 -0.94398438 0 0 Z " fill="#036B50" transform="translate(976,1091)"/>
<path d="M0 0 C4.1402585 1.46126771 7.36288255 3.5425664 10.08203125 7.0625 C12.03998952 11.19504171 11.70423143 15.57716338 11 20 C9.21049365 23.85432136 7.73665715 25.49773376 4.25 27.875 C-0.99336512 29.690011 -5.03167761 29.71919472 -10.25 27.8125 C-14.23561154 25.18561967 -16.48980531 22.53058408 -18 18 C-18.39614654 12.75105833 -17.86557317 9.44657906 -15 5 C-10.08471669 0.56425652 -6.61439479 -0.66762116 0 0 Z " fill="#046C50" transform="translate(875,968)"/>
<path d="M0 0 C0 3.3 0 6.6 0 10 C-1.093125 10.433125 -2.18625 10.86625 -3.3125 11.3125 C-7.23287275 12.93343489 -7.23287275 12.93343489 -10 16 C-10.41117723 19.70059506 -10.28209567 22.26987004 -8.9375 25.75 C-6.28375349 28.83177014 -3.80901248 29.63450496 0 31 C0 34.3 0 37.6 0 41 C-5.59297169 41.45656912 -9.660976 40.60969455 -14 37 C-15.5680891 34.59106153 -16.47387669 32.09399636 -17.375 29.375 C-17.62121094 28.694375 -17.86742187 28.01375 -18.12109375 27.3125 C-18.75991419 25.54614402 -19.38115981 23.77345477 -20 22 C-20.33 21.34 -20.66 20.68 -21 20 C-21.38794722 15.96534892 -21.29417585 13.57658466 -19.4375 9.9375 C-13.41944546 2.68497274 -9.34057704 -0.15065447 0 0 Z " fill="#ECDFDA" transform="translate(1008,665)"/>
<path d="M0 0 C3.0625 2.4375 3.0625 2.4375 5 5 C5.33 5.33 5.66 5.66 6 6 C6.55419529 10.90599112 6.74119722 14.78937787 4.125 19.0625 C0.38214851 22.47509989 -2.60769925 22.32843064 -7.515625 22.29296875 C-10.97198834 21.88537873 -12.68663869 20.53723498 -15 18 C-16.84862688 14.30274625 -16.47587094 10.03538558 -16 6 C-12.01659684 -0.50622515 -7.23074231 -1.05732553 0 0 Z " fill="#ECDFDA" transform="translate(1067,939)"/>
<path d="M0 0 C4.12060758 1.77935327 6.2942789 3.83045953 8 8 C8 12.50915387 7.4981922 14.41238868 4.5625 17.875 C1.82053693 20.14882303 0.7390226 20.89922419 -2.75 21.375 C-7.2753858 20.8528401 -8.7671103 19.15770622 -12 16 C-13.60086627 12.79826746 -13.49917089 9.47422941 -13 6 C-9.33747506 0.26204426 -6.68906908 -0.45349621 0 0 Z " fill="#EADED9" transform="translate(880,1050)"/>
<path d="M0 0 C4.8329122 0.57850321 6.32854509 3.24673078 9.30078125 6.85546875 C14.0048322 13.32479255 16.29074413 19.10874291 16.1953125 27.125 C16.18628906 28.10984375 16.17726563 29.0946875 16.16796875 30.109375 C16.15636719 30.85703125 16.14476562 31.6046875 16.1328125 32.375 C12.75289081 31.83728519 9.44543361 31.23196068 6.1328125 30.375 C6.02066406 29.44880859 6.02066406 29.44880859 5.90625 28.50390625 C4.67793838 20.59213433 1.38766498 15.4511704 -3.5390625 9.28125 C-5.25770481 6.8144928 -5.25477843 5.32069105 -4.8671875 2.375 C-2.8671875 0.375 -2.8671875 0.375 0 0 Z " fill="#EADED9" transform="translate(938.8671875,621.625)"/>
<path d="M0 0 C0.34204089 4.38319062 0.52951967 8.62736848 0 13 C-2.6875 15.3125 -2.6875 15.3125 -6 17 C-7.52127081 19.02031203 -8.76266356 21.10056847 -10.01953125 23.29296875 C-11 25 -11 25 -12 26 C-14.9375 26.1875 -14.9375 26.1875 -18 26 C-20 24 -20 24 -20.1875 22.1171875 C-19.64781804 15.66349074 -17.70354831 11.48562329 -13 7 C-3.5513308 0 -3.5513308 0 0 0 Z " fill="#E8DDD8" transform="translate(897,765)"/>
<path d="M0 0 C3 2 3 2 5 5 C5.37979374 8.2282468 5.03333217 10.92296642 4 14 C1.27278134 17.28870485 -0.28067282 17.89723897 -4.5 18.5 C-8.71932718 17.89723897 -10.27278134 17.28870485 -13 14 C-14.03191572 10.92718429 -14.40790874 8.22305358 -14 5 C-9.66655267 -0.6217695 -6.84231517 -1.62360021 0 0 Z " fill="#076D52" transform="translate(1014,1019)"/>
<path d="M0 0 C3.80470451 0.7133821 5.41196019 1.67868421 8 4.5625 C9.27176524 8.67703459 9.50686067 10.59101705 7.5 14.4375 C4.23718151 17.21089572 2.26438773 17.63731382 -2 17.5625 C-4.80189446 15.79608828 -6.51524911 14.53200178 -8 11.5625 C-8.54035146 7.50986402 -8.34199395 6.02519769 -5.875 2.6875 C-3 0.5625 -3 0.5625 0 0 Z " fill="#E7DCD7" transform="translate(965,946.4375)"/>
<path d="M0 0 C4.21796616 0.86080942 6.17690429 2.46458565 9.0625 5.625 C9.85768932 9.44190873 9.38655186 11.04170665 7.5 14.4375 C4.29253157 17.31599731 2.3475666 17.70017661 -1.9375 17.625 C-4.73939446 15.85858828 -6.45274911 14.59450178 -7.9375 11.625 C-8.47785146 7.57236402 -8.27949395 6.08769769 -5.8125 2.75 C-2.9375 0.625 -2.9375 0.625 0 0 Z " fill="#E7DCD7" transform="translate(987.9375,904.375)"/>
<path d="M0 0 C3.8425303 0.72047443 5.45767292 1.57152696 8 4.5625 C8.7975483 9.58705429 8.82360163 11.39976829 5.875 15.5625 C3 17.5625 3 17.5625 0 18.1875 C-4.10703441 17.33186783 -5.55401113 15.94371991 -8 12.5625 C-8.625 9.0625 -8.625 9.0625 -8 5.5625 C-5.54999553 2.17572911 -4.13607554 0.77551416 0 0 Z " fill="#E8DDD8" transform="translate(939,948.4375)"/>
<path d="M0 0 C4.4297642 0.79102932 5.89210172 1.98974785 8.5 5.625 C9.20338515 9.37638748 8.76523868 11.09452264 7.0625 14.5 C3.80981455 17.19734891 1.76679951 17.35478547 -2.37109375 17.109375 C-4.5 16.625 -4.5 16.625 -7.0625 14.5 C-8.76523868 11.09452264 -9.20338515 9.37638748 -8.5 5.625 C-5.89210172 1.98974785 -4.4297642 0.79102932 0 0 Z " fill="#E8DDD8" transform="translate(988.5,945.375)"/>
<path d="M0 0 C2.5 2.125 2.5 2.125 4 5 C4.07517661 9.2850666 3.69099731 11.23003157 0.8125 14.4375 C-2.52215137 16.29008409 -4.2444323 16.63924557 -8 16 C-11.26927536 13.34923619 -12.78911852 11.35566665 -13.4375 7.1875 C-13 4 -13 4 -10.4375 1.0625 C-6.82240272 -1.57831575 -4.25972549 -1.4199085 0 0 Z " fill="#E8DDD8" transform="translate(1011,891)"/>
<path d="M0 0 C2.5 2.125 2.5 2.125 4 5 C3.93768424 8.61431429 3.78958699 10.97010393 1.5625 13.875 C-1.69637887 16.22139279 -4.00364468 16.54851936 -8 16 C-10.43826648 13.87300158 -11.66167426 12.79276192 -13 10 C-13.14905149 5.67750688 -12.67946009 3.79936481 -9.875 0.5 C-6.02851705 -1.50686067 -4.11453459 -1.27176524 0 0 Z " fill="#E9DDD8" transform="translate(1016,956)"/>
<path d="M0 0 C2.4375 1.625 2.4375 1.625 4 4 C4.45019252 7.60154012 4.41219248 10.02104287 3 13.375 C-0.07257926 15.87147065 -3.09270645 16.28886606 -7 16 C-10 14.625 -10 14.625 -12 12 C-12.70370851 8.85061601 -12.7093235 6.14870431 -12 3 C-8.42324245 -1.55223688 -5.38017918 -1.56514303 0 0 Z " fill="#E9DDD8" transform="translate(1021,912)"/>
<path d="M0 0 C2.88247576 2.34201156 2.97497895 3.79983163 3.4375 7.5 C3 11 3 11 1.4375 13.375 C-1.85492184 15.5699479 -4.04169355 16.06944397 -8 16 C-10.98747189 14.02953982 -12.61681046 12.57637321 -13.48046875 9.0234375 C-13.73520387 5.34699012 -13.26149722 3.33504332 -11 0.4375 C-7.02195217 -1.46864792 -4.15933601 -1.38644534 0 0 Z " fill="#EADED9" transform="translate(980,971)"/>
<path d="M0 0 C3.74225404 1.1566967 5.28964665 1.79776291 7.4375 5.0625 C7.88769252 8.66404012 7.84969248 11.08354287 6.4375 14.4375 C3.8380307 16.54956881 1.75736461 17.03461356 -1.5546875 17.28515625 C-3.5625 17.0625 -3.5625 17.0625 -6.5625 15.0625 C-9.06666232 11.30625652 -9.35403944 9.49512088 -8.5625 5.0625 C-5.90798953 1.20139386 -4.7398766 0.08315573 0 0 Z " fill="#EADED9" transform="translate(1020.5625,932.9375)"/>
<path d="M0 0 C2.88247576 2.34201156 2.97497895 3.79983163 3.4375 7.5 C3 11 3 11 1.4375 13.375 C-1.85492184 15.5699479 -4.04169355 16.06944397 -8 16 C-10.98747189 14.02953982 -12.61681046 12.57637321 -13.48046875 9.0234375 C-13.73520387 5.34699012 -13.26149722 3.33504332 -11 0.4375 C-7.02195217 -1.46864792 -4.15933601 -1.38644534 0 0 Z " fill="#EADED9" transform="translate(1003,928)"/>
<path d="M0 0 C2.83306508 2.30186537 2.97121053 3.82406433 3.5625 7.4375 C3 11 3 11 0.4375 14 C-3 16 -3 16 -6.6875 16.0625 C-10 15 -10 15 -11.9375 13.4375 C-13.47958427 9.89977725 -13.80568909 6.78828812 -13 3 C-9.34531596 -1.68256392 -5.32762481 -1.77587494 0 0 Z " fill="#EADED9" transform="translate(980,928)"/>
<path d="M0 0 C3.38677089 2.45000447 4.78698584 3.86392446 5.5625 8 C4.84202557 11.8425303 3.99097304 13.45767292 1 16 C-2.99893269 16.94237143 -5.98105682 16.61136591 -9.5 14.5 C-11.61897146 10.9683809 -11.79841448 8.01676563 -11 4 C-8.16650967 -0.53358453 -5.10426635 -0.80593679 0 0 Z " fill="#EDDFDB" transform="translate(999,967)"/>
<path d="M0 0 C3.38677089 2.45000447 4.78698584 3.86392446 5.5625 8 C4.84202557 11.8425303 3.99097304 13.45767292 1 16 C-2.99893269 16.94237143 -5.98105682 16.61136591 -9.5 14.5 C-11.61897146 10.9683809 -11.79841448 8.01676563 -11 4 C-8.16650967 -0.53358453 -5.10426635 -0.80593679 0 0 Z " fill="#EDDFDB" transform="translate(957,967)"/>
<path d="M0 0 C3.38677089 2.45000447 4.78698584 3.86392446 5.5625 8 C4.84202557 11.8425303 3.99097304 13.45767292 1 16 C-2.99893269 16.94237143 -5.98105682 16.61136591 -9.5 14.5 C-11.61897146 10.9683809 -11.79841448 8.01676563 -11 4 C-8.16650967 -0.53358453 -5.10426635 -0.80593679 0 0 Z " fill="#EDDFDB" transform="translate(957,925)"/>
<path d="M0 0 C0.86625 -0.01933594 1.7325 -0.03867187 2.625 -0.05859375 C5 0.4375 5 0.4375 6.78515625 2.28125 C8.45906024 5.25229503 8.48063847 7.07303069 8 10.4375 C6.5 13.3125 6.5 13.3125 4 15.4375 C0.00106731 16.37987143 -2.98105682 16.04886591 -6.5 13.9375 C-8.75389302 10.18101164 -8.48380069 7.79170619 -8 3.4375 C-5.75292562 0.2583594 -3.78331951 0.00562994 0 0 Z " fill="#EEE0DB" transform="translate(933,925.5625)"/>
<path d="M0 0 C3.07684111 2.02192416 4.92027706 4.54049291 7.1875 7.4375 C6.07375 7.97375 4.96 8.51 3.8125 9.0625 C-4.90898568 13.25988302 -4.90898568 13.25988302 -12.48046875 19.12109375 C-13.8125 20.4375 -13.8125 20.4375 -15.8125 20.4375 C-16.44715368 15.36027058 -15.13311489 12.49636531 -12.3828125 8.40234375 C-9.80018076 5.17084185 -4.53841341 -1.40847313 0 0 Z " fill="#E8DDD8" transform="translate(1026.8125,776.5625)"/>
<path d="M0 0 C5.82111639 0.16558974 11.40797241 1.47490157 17 3 C16.125 10.75 16.125 10.75 15 13 C9.147205 12.48517081 3.6702363 11.54642808 -2 10 C-1.85950482 8.52031676 -1.71245174 7.04125484 -1.5625 5.5625 C-1.48128906 4.73878906 -1.40007812 3.91507813 -1.31640625 3.06640625 C-1 1 -1 1 0 0 Z " fill="#E5DBD6" transform="translate(1129,1052)"/>
<path d="M0 0 C3.71045247 1.57780923 6.29906384 3.90703248 9.25 6.625 C10.14203125 7.44226563 11.0340625 8.25953125 11.953125 9.1015625 C12.96632813 10.04128906 12.96632813 10.04128906 14 11 C12.35 13.31 10.7 15.62 9 18 C4.54564712 16.88641178 2.71968952 15.37021376 -0.75 12.4375 C-1.73484375 11.61121094 -2.7196875 10.78492188 -3.734375 9.93359375 C-4.48203125 9.29550781 -5.2296875 8.65742187 -6 8 C-4.44805246 4.67240077 -2.69378051 2.51419515 0 0 Z " fill="#E7DCD7" transform="translate(838,607)"/>
<path d="M0 0 C2.01627907 5.21860465 2.01627907 5.21860465 1.95703125 8.0625 C1 10 1 10 -1.8359375 11.265625 C-3.58777344 11.75289062 -3.58777344 11.75289062 -5.375 12.25 C-6.53773438 12.58515625 -7.70046875 12.9203125 -8.8984375 13.265625 C-12 14 -12 14 -15 14 C-15.33 10.37 -15.66 6.74 -16 3 C-14.288125 2.505 -12.57625 2.01 -10.8125 1.5 C-9.84957031 1.2215625 -8.88664063 0.943125 -7.89453125 0.65625 C-5.14654124 0.03322392 -2.80401584 -0.12302812 0 0 Z " fill="#E8DDD8" transform="translate(793,1062)"/>
<path d="M0 0 C1.47968324 0.14049518 2.95874516 0.28754826 4.4375 0.4375 C5.67306641 0.55931641 5.67306641 0.55931641 6.93359375 0.68359375 C9 1 9 1 10 2 C9.9140625 3.78515625 9.9140625 3.78515625 9.625 6.0625 C9.52574219 6.866875 9.42648437 7.67125 9.32421875 8.5 C9.21722656 9.325 9.11023438 10.15 9 11 C8.81239874 12.52082085 8.62489006 14.04165312 8.4375 15.5625 C8.2209375 17.2640625 8.2209375 17.2640625 8 19 C5.03 18.67 2.06 18.34 -1 18 C-1.9620955 14.151618 -1.97859993 11.76459923 -1.625 7.875 C-1.53476562 6.82054687 -1.44453125 5.76609375 -1.3515625 4.6796875 C-1 2 -1 2 0 0 Z " fill="#E6DCD6" transform="translate(977,552)"/>
<path d="M0 0 C4 5 4 5 5 9 C-2.92 12.96 -2.92 12.96 -11 17 C-15 9 -15 9 -15 7 C-10.05 4.69 -5.1 2.38 0 0 Z " fill="#E7DCD7" transform="translate(805,1096)"/>
<path d="M0 0 C3.34820898 1.46625856 5.69266359 3.33658447 8.3125 5.875 C9.38951172 6.89207031 9.38951172 6.89207031 10.48828125 7.9296875 C12 10 12 10 11.921875 12.0859375 C10.3597945 15.32924024 7.83092098 16.83163499 5 19 C0.72916666 14.94510767 -2.92877136 11.03681497 -6 6 C-4.02 4.02 -2.04 2.04 0 0 Z " fill="#E9DDD8" transform="translate(853,593)"/>
<path d="M0 0 C3.95820859 0.56545837 6.6659053 1.80902348 10 4 C8.93351771 6.32169599 7.84835973 8.63094457 6.75 10.9375 C6.44964844 11.59685547 6.14929688 12.25621094 5.83984375 12.93554688 C3.5250739 17.73746305 3.5250739 17.73746305 0.9375 19.03125 C-1.94494763 18.98475891 -3.68078969 17.61056271 -6 16 C-5.37183502 12.05050296 -4.1354471 8.80107972 -2.4375 5.1875 C-1.98246094 4.21167969 -1.52742187 3.23585938 -1.05859375 2.23046875 C-0.70925781 1.49441406 -0.35992188 0.75835938 0 0 Z " fill="#E9DDD8" transform="translate(1017,564)"/>
<path d="M0 0 C3.63 0 7.26 0 11 0 C11 8.25 11 16.5 11 25 C9.02 25 7.04 25 5 25 C4.96132812 23.42412109 4.96132812 23.42412109 4.921875 21.81640625 C4.62552252 13.65456735 4.03798469 7.29442396 0 0 Z " fill="#E3DAD5" transform="translate(1100,800)"/>
<path d="M0 0 C2.04296875 2.625 2.04296875 2.625 4.1875 6 C4.55552734 6.57234375 4.92355469 7.1446875 5.30273438 7.734375 C6.21125071 9.15024462 7.10686477 10.57437797 8 12 C6.46564493 15.29374888 5.21115194 17.15115494 2 19 C-1.93677426 17.68774191 -2.8271782 15.8038606 -5.1875 12.4375 C-6.26064453 10.91962891 -6.26064453 10.91962891 -7.35546875 9.37109375 C-7.89816406 8.58863281 -8.44085937 7.80617188 -9 7 C-6.9696035 2.63239154 -5.10341613 0 0 0 Z " fill="#E8DDD8" transform="translate(871,581)"/>
<path d="M0 0 C1.265625 2.6171875 1.265625 2.6171875 2.25 5.875 C2.58515625 6.94492188 2.9203125 8.01484375 3.265625 9.1171875 C4 12 4 12 4 15 C-2.625 18 -2.625 18 -6 18 C-9.44419134 6.47835991 -9.44419134 6.47835991 -9 1 C-3.44842105 -1.62157895 -3.44842105 -1.62157895 0 0 Z " fill="#E3DAD5" transform="translate(1016,1189)"/>
<path d="M0 0 C3.86444746 1.4658249 5.01174362 3.473551 7 7 C5.61392377 8.46761013 4.21568805 9.92374189 2.8125 11.375 C2.03519531 12.18710938 1.25789062 12.99921875 0.45703125 13.8359375 C-1.987055 15.98859852 -3.92616557 17.00632706 -7 18 C-7.83905565 16.87926138 -8.67107831 15.75325453 -9.5 14.625 C-10.19609375 13.68527344 -10.19609375 13.68527344 -10.90625 12.7265625 C-12 11 -12 11 -12 9 C-10.23810568 7.58061562 -8.41435143 6.23733457 -6.5625 4.9375 C-3.13481849 2.64887381 -3.13481849 2.64887381 0 0 Z " fill="#E8DCD8" transform="translate(822,1129)"/>
<path d="M0 0 C0.66 2.97 1.32 5.94 2 9 C-0.45787656 9.50233973 -2.91625024 10.00196857 -5.375 10.5 C-6.07367187 10.64308594 -6.77234375 10.78617188 -7.4921875 10.93359375 C-12.7734375 12 -12.7734375 12 -15 12 C-15.66 8.37 -16.32 4.74 -17 1 C-11.26039225 0.16514796 -5.80058027 -0.09063407 0 0 Z " fill="#E8DDD8" transform="translate(789,1044)"/>
<path d="M0 0 C0.87042243 1.88842514 1.72075474 3.78611902 2.5625 5.6875 C3.03816406 6.74324219 3.51382813 7.79898438 4.00390625 8.88671875 C5.05970848 12.18661828 5.138663 13.76319146 4 17 C1.43689172 18.7941758 0.16880694 19 -3 19 C-4.17154293 16.71070947 -5.33738074 14.41881638 -6.5 12.125 C-6.83386719 11.47402344 -7.16773438 10.82304688 -7.51171875 10.15234375 C-10 5.2265625 -10 5.2265625 -10 3 C-3.375 0 -3.375 0 0 0 Z " fill="#E8DDD8" transform="translate(907,561)"/>
<path d="M0 0 C3.3 0 6.6 0 10 0 C10 5.61 10 11.22 10 17 C6.7 17 3.4 17 0 17 C0 11.39 0 5.78 0 0 Z " fill="#E7DCD7" transform="translate(950,1197)"/>
<path d="M0 0 C5.61 0 11.22 0 17 0 C17.33 2.97 17.66 5.94 18 9 C12.23918159 10.2982126 6.91260345 11.25706972 1 11 C0.67 7.37 0.34 3.74 0 0 Z " fill="#E6DCD7" transform="translate(770,1025)"/>
<path d="M0 0 C5.61 0 11.22 0 17 0 C17 3.3 17 6.6 17 10 C11.39 10 5.78 10 0 10 C0 6.7 0 3.4 0 0 Z " fill="#E7DCD7" transform="translate(1133,1015)"/>
<path d="M0 0 C0.50744423 1.89385437 1.00564574 3.79018666 1.5 5.6875 C1.7784375 6.74324219 2.056875 7.79898437 2.34375 8.88671875 C3 12 3 12 3 17 C-1.95 17.495 -1.95 17.495 -7 18 C-8.27604787 12.17803161 -9.25881098 6.95265252 -9 1 C-5.846632 0.29925156 -3.27275026 0 0 0 Z " fill="#E3DAD5" transform="translate(997,1193)"/>
<path d="M0 0 C4.20490286 1.65192612 4.80982935 3.01228669 8 7 C4.7 10.96 1.4 14.92 -2 19 C-4.64 17.02 -7.28 15.04 -10 13 C-8.19572805 9.39145611 -6.55275204 7.18688934 -3.875 4.25 C-3.15054688 3.45078125 -2.42609375 2.6515625 -1.6796875 1.828125 C-0.84824219 0.92320313 -0.84824219 0.92320313 0 0 Z " fill="#E8DDD8" transform="translate(848,1157)"/>
<path d="M0 0 C3.66172475 0.62678171 6.8818995 1.64451846 10.3125 3.0625 C11.19550781 3.42472656 12.07851562 3.78695313 12.98828125 4.16015625 C13.98408203 4.57587891 13.98408203 4.57587891 15 5 C15 8.90432869 14.31626692 11.38026598 13 15 C8.85701333 14.40165275 5.81805623 12.99335715 2.1875 10.9375 C1.21167969 10.38964844 0.23585938 9.84179688 -0.76953125 9.27734375 C-1.50558594 8.85582031 -2.24164062 8.43429687 -3 8 C-2.45276317 4.62537285 -1.9451 2.91765 0 0 Z " fill="#E8DDD8" transform="translate(1119,1089)"/>
<path d="M0 0 C2 5.625 2 5.625 2 9 C-3.61 9.99 -9.22 10.98 -15 12 C-15.66 8.7 -16.32 5.4 -17 2 C-11.11840613 0.52960153 -6.05503233 -0.22018299 0 0 Z " fill="#E4DBD6" transform="translate(1144,956)"/>
<path d="M0 0 C4 6.75 4 6.75 4 9 C1.515625 10.76171875 1.515625 10.76171875 -1.75 12.6875 C-2.81734375 13.33074219 -3.8846875 13.97398438 -4.984375 14.63671875 C-8 16 -8 16 -10.27734375 15.8203125 C-12.72339151 14.65552785 -13.71499135 13.3671212 -15 11 C-14.9453125 9.09765625 -14.9453125 9.09765625 -14 7 C-11.34765625 5.078125 -11.34765625 5.078125 -8.0625 3.25 C-6.98097656 2.63640625 -5.89945313 2.0228125 -4.78515625 1.390625 C-2 0 -2 0 0 0 Z " fill="#E9DDD9" transform="translate(815,1114)"/>
<path d="M0 0 C3.78091617 1.34313185 6.65651916 3.02964684 9.8125 5.5 C10.60269531 6.1084375 11.39289062 6.716875 12.20703125 7.34375 C12.79871094 7.8903125 13.39039063 8.436875 14 9 C14 11 14 11 12.0625 13 C11.381875 13.66 10.70125 14.32 10 15 C9.67 15.66 9.34 16.32 9 17 C5.37723685 15.6744419 2.36494652 14.05653045 -0.8125 11.875 C-1.60269531 11.33617187 -2.39289062 10.79734375 -3.20703125 10.2421875 C-3.79871094 9.83226562 -4.39039063 9.42234375 -5 9 C-4.21616433 5.13857796 -2.57189568 2.98671756 0 0 Z " fill="#E7DCD7" transform="translate(826,623)"/>
<path d="M0 0 C0.33 5.61 0.66 11.22 1 17 C-1.97 17.33 -4.94 17.66 -8 18 C-8.99 12.39 -9.98 6.78 -11 1 C-7.57067929 -0.71466036 -3.78283935 -0.05404056 0 0 Z " fill="#EADED9" transform="translate(947,552)"/>
<path d="M0 0 C5.61 0 11.22 0 17 0 C17 2.97 17 5.94 17 9 C13.43954823 10.18681726 10.56191663 10.09689832 6.8125 10.0625 C5.54019531 10.05347656 4.26789062 10.04445313 2.95703125 10.03515625 C1.49330078 10.01775391 1.49330078 10.01775391 0 10 C0 6.7 0 3.4 0 0 Z " fill="#E3DAD5" transform="translate(770,1006)"/>
<path d="M0 0 C0 2.97 0 5.94 0 9 C-2.26999825 9.50377768 -4.54103003 10.00290019 -6.8125 10.5 C-8.07707031 10.7784375 -9.34164063 11.056875 -10.64453125 11.34375 C-14 12 -14 12 -17 12 C-17.33 8.7 -17.66 5.4 -18 2 C-11.77599753 0.41930096 -6.41762359 -0.20373408 0 0 Z " fill="#E5DBD6" transform="translate(1149,976)"/>
<path d="M0 0 C2.45873768 0.14058476 4.91685175 0.28722999 7.375 0.4375 C8.07367187 0.47681641 8.77234375 0.51613281 9.4921875 0.55664062 C14.7734375 0.88671875 14.7734375 0.88671875 17 2 C17.125 8.75 17.125 8.75 16 11 C10.39 10.67 4.78 10.34 -1 10 C-0.67 6.7 -0.34 3.4 0 0 Z " fill="#E5DBD6" transform="translate(773,966)"/>
<path d="M0 0 C5.91260345 -0.25706972 11.23918159 0.7017874 17 2 C17.09765625 8.15234375 17.09765625 8.15234375 17 10 C16.67 10.33 16.34 10.66 16 11 C13.13311752 10.90903444 10.29699485 10.76232012 7.4375 10.5625 C6.63119141 10.51029297 5.82488281 10.45808594 4.99414062 10.40429688 C2.99578262 10.27422624 0.99784614 10.13770944 -1 10 C-0.67 6.7 -0.34 3.4 0 0 Z " fill="#E5DBD6" transform="translate(776,947)"/>
<path d="M0 0 C3.01490557 3.01490557 4.34911378 5.38816849 6.1875 9.1875 C6.71730469 10.27417969 7.24710938 11.36085938 7.79296875 12.48046875 C8.19128906 13.31191406 8.58960938 14.14335938 9 15 C3.68108108 18.98918919 3.68108108 18.98918919 1.03125 19.03125 C-2.14821609 17.41705953 -3.23914081 14.51433556 -4.75 11.4375 C-5.06582031 10.82197266 -5.38164063 10.20644531 -5.70703125 9.57226562 C-6.48361889 8.05438979 -7.24345561 6.52796466 -8 5 C-4.04 2.525 -4.04 2.525 0 0 Z " fill="#E8DDD8" transform="translate(887,570)"/>
<path d="M0 0 C2.97 0.33 5.94 0.66 9 1 C8.51053237 7.26518562 7.42378711 12.20398736 5 18 C2.03 17.67 -0.94 17.34 -4 17 C-2.07289294 5.47835991 -2.07289294 5.47835991 0 0 Z " fill="#E8DDD8" transform="translate(915,1191)"/>
<path d="M0 0 C7 0 7 0 10 1 C9.67 6.28 9.34 11.56 9 17 C5.7 17 2.4 17 -1 17 C-0.67 11.39 -0.34 5.78 0 0 Z " fill="#E9DDD9" transform="translate(931,1195)"/>
<path d="M0 0 C2.71140471 1.03671357 3.8872568 2.41350532 5.75 4.625 C6.34039063 5.31207031 6.93078125 5.99914063 7.5390625 6.70703125 C9.02410579 8.67855423 10.10739206 10.57073992 11.125 12.8125 C9.145 14.4625 7.165 16.1125 5.125 17.8125 C1.45713607 16.30900623 -0.56410393 14.17521208 -3.125 11.1875 C-3.83140625 10.37023438 -4.5378125 9.55296875 -5.265625 8.7109375 C-5.79671875 8.08445312 -6.3278125 7.45796875 -6.875 6.8125 C-3.40936019 -0.34093602 -3.40936019 -0.34093602 0 0 Z " fill="#E9DDD8" transform="translate(1078.875,1150.1875)"/>
<path d="M0 0 C0.33 2.97 0.66 5.94 1 9 C-1.10320063 9.50404808 -3.20759791 10.00310508 -5.3125 10.5 C-6.48425781 10.7784375 -7.65601563 11.056875 -8.86328125 11.34375 C-12 12 -12 12 -15 12 C-16.31626692 8.38026598 -17 5.90432869 -17 2 C-5.47835991 -0.29612756 -5.47835991 -0.29612756 0 0 Z " fill="#E4DBD6" transform="translate(1141,937)"/>
<path d="M0 0 C2.45873768 0.14058476 4.91685175 0.28722999 7.375 0.4375 C8.07367187 0.47681641 8.77234375 0.51613281 9.4921875 0.55664062 C14.7734375 0.88671875 14.7734375 0.88671875 17 2 C17.04241723 4.33294775 17.04092937 6.66702567 17 9 C16 10 16 10 12.18359375 10.09765625 C10.60153318 10.09098089 9.01948841 10.07901875 7.4375 10.0625 C6.63119141 10.05798828 5.82488281 10.05347656 4.99414062 10.04882812 C2.99606244 10.03700518 0.99802217 10.01906914 -1 10 C-1.125 3.375 -1.125 3.375 0 0 Z " fill="#DFD8D2" transform="translate(771,987)"/>
<path d="M0 0 C2.8605891 1.35937085 4.85927699 2.64520469 7 5 C5.60366893 8.18559952 3.95442507 10.23943845 1.4375 12.625 C-1.14015389 15.04521959 -1.14015389 15.04521959 -3 18 C-6.36591866 16.55746343 -8.51047079 14.66735273 -11 12 C-9.49650623 8.33213607 -7.36271208 6.31089607 -4.375 3.75 C-3.14910156 2.69039062 -3.14910156 2.69039062 -1.8984375 1.609375 C-1.27195312 1.07828125 -0.64546875 0.5471875 0 0 Z " fill="#E9DDD8" transform="translate(835,1144)"/>
<path d="M0 0 C3.73346654 0.31653303 6.28436631 2.41631773 9.25 4.5625 C10.14203125 5.20316406 11.0340625 5.84382813 11.953125 6.50390625 C12.96632813 7.24447266 12.96632813 7.24447266 14 8 C13.23596585 11.47153381 11.91813089 13.99770818 10 17 C6.47761953 15.43632643 3.72876006 13.30504111 0.75 10.875 C-0.14203125 10.15054687 -1.0340625 9.42609375 -1.953125 8.6796875 C-2.96632813 7.84824219 -2.96632813 7.84824219 -4 7 C-2.92598892 4.08482708 -2.22189824 2.22189824 0 0 Z " fill="#E7DCD7" transform="translate(1101,1122)"/>
<path d="M0 0 C11.52164009 0.96355353 11.52164009 0.96355353 17 2 C17.09765625 8.15234375 17.09765625 8.15234375 17 10 C16.67 10.33 16.34 10.66 16 11 C13.13311752 10.90903444 10.29699485 10.76232012 7.4375 10.5625 C6.63119141 10.51029297 5.82488281 10.45808594 4.99414062 10.40429688 C2.99578262 10.27422624 0.99784614 10.13770944 -1 10 C-0.67 6.7 -0.34 3.4 0 0 Z " fill="#E8DDD8" transform="translate(1132,1034)"/>
<path d="M0 0 C1.859375 2.484375 1.859375 2.484375 3.75 5.75 C4.38421875 6.81734375 5.0184375 7.8846875 5.671875 8.984375 C7 12 7 12 6.81640625 14.30859375 C6 16 6 16 4.1875 17.3125 C1.49587895 18.15843804 0.58761963 18.1275661 -2 17 C-3.921875 14.34765625 -3.921875 14.34765625 -5.75 11.0625 C-6.36359375 9.98097656 -6.9771875 8.89945313 -7.609375 7.78515625 C-9 5 -9 5 -9 3 C-3.375 0 -3.375 0 0 0 Z " fill="#E6DCD7" transform="translate(1049,1173)"/>
<path d="M0 0 C1.86653061 3.49186973 2.4203153 6.36416649 2.875 10.3125 C3.60949051 15.74903601 3.60949051 15.74903601 6.125 20.5 C8.97696935 25.82367612 8.32045915 31.08040742 8 37 C2.10081311 34.92731271 2.10081311 34.92731271 0 32 C-0.26153286 29.48272281 -0.3497922 27.21896034 -0.29296875 24.70703125 C-0.28872391 24.00100266 -0.28447906 23.29497406 -0.28010559 22.56755066 C-0.26333034 20.31547697 -0.22568243 18.06430258 -0.1875 15.8125 C-0.17245157 14.28451815 -0.15876344 12.75652224 -0.14648438 11.22851562 C-0.11343089 7.48533128 -0.06165832 3.74281804 0 0 Z " fill="#EBDEDA" transform="translate(996,809)"/>
<path d="M0 0 C3.46941546 0.45822468 6.67395049 0.89131683 10 2 C9.36496267 5.56647225 8.46179216 8.85865672 7.1875 12.25 C6.87167969 13.12140625 6.55585937 13.9928125 6.23046875 14.890625 C5 17 5 17 3.03515625 17.88671875 C0.04436446 18.05319277 -1.60039739 16.6663907 -4 15 C-2.9318153 9.88634986 -1.76892524 4.92772031 0 0 Z " fill="#E5DBD6" transform="translate(998,558)"/>
<path d="M0 0 C2.9719385 1.12451727 5.33440687 2.22293791 8 4 C6.50829734 8.9723422 4.39542583 13.41845739 2 18 C-1.71888239 17.49287967 -4.73454239 16.88391785 -8 15 C-6.62712658 11.30123909 -4.93644547 8.0485524 -2.875 4.6875 C-2.33617187 3.80449219 -1.79734375 2.92148438 -1.2421875 2.01171875 C-0.83226562 1.34785156 -0.42234375 0.68398437 0 0 Z " fill="#EADED9" transform="translate(880,1178)"/>
<path d="M0 0 C2.95718173 1.32294972 4.34279954 3.26788275 6.328125 5.8046875 C7.03453125 6.68898438 7.7409375 7.57328125 8.46875 8.484375 C10.078125 10.9296875 10.078125 10.9296875 10.078125 13.9296875 C6.118125 15.9096875 6.118125 15.9096875 2.078125 17.9296875 C-0.891875 13.9696875 -3.861875 10.0096875 -6.921875 5.9296875 C-3.88594686 -0.14216879 -3.88594686 -0.14216879 0 0 Z " fill="#E9DDD8" transform="translate(1063.921875,1163.0703125)"/>
<path d="M0 0 C0.66 5.61 1.32 11.22 2 17 C-1.3 17 -4.6 17 -8 17 C-9.50156874 13.99686252 -9.09281204 11.20932478 -9.0625 7.875 C-9.05347656 6.59367187 -9.04445313 5.31234375 -9.03515625 3.9921875 C-9.02355469 3.00476562 -9.01195312 2.01734375 -9 1 C-2.25 0 -2.25 0 0 0 Z " fill="#EBDEDA" transform="translate(979,1196)"/>
<path d="M0 0 C2.89696854 0.36982577 5.37621929 0.68810965 8 2 C6.84941444 7.39795989 5.57578241 12.70987333 4 18 C2.51793505 17.745504 1.03931385 17.47088238 -0.4375 17.1875 C-1.26121094 17.03667969 -2.08492187 16.88585938 -2.93359375 16.73046875 C-3.61550781 16.48941406 -4.29742188 16.24835938 -5 16 C-6.32095328 12.03714015 -5.27105135 10.64909563 -3.625 6.875 C-3.16351562 5.79992188 -2.70203125 4.72484375 -2.2265625 3.6171875 C-1 1 -1 1 0 0 Z " fill="#E7DCD7" transform="translate(897,1186)"/>
<path d="M0 0 C2.31 5.28 4.62 10.56 7 16 C4.69 16.66 2.38 17.32 0 18 C-0.99 18.33 -1.98 18.66 -3 19 C-3.81332743 16.89615302 -4.62563417 14.79191143 -5.4375 12.6875 C-5.88996094 11.51574219 -6.34242187 10.34398437 -6.80859375 9.13671875 C-7.57984755 7.10617185 -8.31312642 5.06062074 -9 3 C-2.25 0 -2.25 0 0 0 Z " fill="#E5DBD6" transform="translate(1033,1182)"/>
<path d="M0 0 C5.47932789 1.54545146 10.11429181 4.15543212 15 7 C13.80100302 10.0831351 12.52299523 13.06279492 11 16 C7.30123909 14.62712658 4.0485524 12.93644547 0.6875 10.875 C-0.19550781 10.33617187 -1.07851562 9.79734375 -1.98828125 9.2421875 C-2.65214844 8.83226562 -3.31601563 8.42234375 -4 8 C-2.68 5.36 -1.36 2.72 0 0 Z " fill="#E6DCD7" transform="translate(1111,1106)"/>
<path d="M0 0 C1.25664978 2.90600261 2 4.79604584 2 8 C-2.95 9.98 -7.9 11.96 -13 14 C-16 7 -16 7 -16 4 C-14.274773 3.32320342 -12.54461061 2.65898 -10.8125 2 C-9.84957031 1.62875 -8.88664063 1.2575 -7.89453125 0.875 C-5.07817642 0.02363228 -2.91835561 -0.17072647 0 0 Z " fill="#E7DCD7" transform="translate(799,1081)"/>
<path d="M0 0 C0.33 3.3 0.66 6.6 1 10 C-4.61 10 -10.22 10 -16 10 C-16 7.03 -16 4.06 -16 1 C-10.59280411 0.07962623 -5.48677955 -0.08441199 0 0 Z " fill="#EDDFDB" transform="translate(1149,995)"/>
<path d="M0 0 C2.91517292 1.07401108 4.77810176 1.77810176 7 4 C6.63650459 7.55761461 4.78870096 10.25656866 2.9375 13.25 C2.38964844 14.14203125 1.84179688 15.0340625 1.27734375 15.953125 C0.85582031 16.62859375 0.43429687 17.3040625 0 18 C-3.40312738 16.94124926 -6.01353231 15.99097846 -9 14 C-7.45158425 10.65291949 -5.50894136 7.75332488 -3.375 4.75 C-2.74335937 3.85796875 -2.11171875 2.9659375 -1.4609375 2.046875 C-0.73777344 1.03367187 -0.73777344 1.03367187 0 0 Z " fill="#E8DDD8" transform="translate(863,1169)"/>
<path d="M0 0 C5.61 0.66 11.22 1.32 17 2 C16.67 4.97 16.34 7.94 16 11 C10.51322045 11.08441199 5.40719589 10.92037377 0 10 C0 6.7 0 3.4 0 0 Z " fill="#E9DDD9" transform="translate(779,928)"/>
<path d="M0 0 C5.28 0.33 10.56 0.66 16 1 C16 3.97 16 6.94 16 10 C10.72 10 5.44 10 0 10 C0 6.7 0 3.4 0 0 Z " fill="#EBDED9" transform="translate(1120,802)"/>
<path d="M0 0 C0.50588147 1.91512272 1.00448391 3.83216922 1.5 5.75 C1.7784375 6.81734375 2.056875 7.8846875 2.34375 8.984375 C3 12 3 12 3 16 C0.36 16.66 -2.28 17.32 -5 18 C-5.83719383 15.70967689 -6.6698929 13.41789043 -7.5 11.125 C-7.73847656 10.47402344 -7.97695313 9.82304688 -8.22265625 9.15234375 C-10 4.2265625 -10 4.2265625 -10 2 C-6.45648927 0.38010938 -3.87280581 -0.10414268 0 0 Z " fill="#EBDED9" transform="translate(926,556)"/>
<path d="M0 0 C10.55808656 3.07517084 10.55808656 3.07517084 15 5 C14.47731534 7.76276177 13.89130413 10.3260876 13 13 C7.34979382 12.39891424 2.33835539 10.92471317 -3 9 C-2.5020163 5.26512223 -2.12508244 3.18762365 0 0 Z " fill="#E7DCD7" transform="translate(1126,1072)"/>
<path d="M0 0 C3.86142204 0.78383567 6.01328244 2.42810432 9 5 C5.72469104 9.63720719 2.69564393 13.68542782 -2 17 C-4.475 16.01 -4.475 16.01 -7 15 C-6.42176904 10.93774452 -5.10882263 8.15237654 -2.9375 4.6875 C-2.38964844 3.80449219 -1.84179688 2.92148437 -1.27734375 2.01171875 C-0.64505859 1.01591797 -0.64505859 1.01591797 0 0 Z " fill="#E9DDD9" transform="translate(1035,574)"/>
<path d="M0 0 C0.66 2.64 1.32 5.28 2 8 C-2.96260257 9.91539047 -7.86626838 11.60961435 -13 13 C-13 9.7 -13 6.4 -13 3 C-4.5 -1.125 -4.5 -1.125 0 0 Z " fill="#DDD7D2" transform="translate(1122,686)"/>
<path d="M0 0 C4.69159716 3.38772897 9.0299782 6.78185183 13 11 C11.35 12.98 9.7 14.96 8 17 C4.52224821 15.48446596 2.0442016 13.4226544 -0.75 10.875 C-1.54921875 10.15054687 -2.3484375 9.42609375 -3.171875 8.6796875 C-4.07679687 7.84824219 -4.07679687 7.84824219 -5 7 C-3.35 4.69 -1.7 2.38 0 0 Z " fill="#E8DDD8" transform="translate(1090,1137)"/>
<path d="M0 0 C0.99 0 1.98 0 3 0 C3.94196798 4.00336393 4.4374623 6.16153059 2.5 9.875 C-0.72987683 12.6203953 -2.78920629 13 -7 13 C-9.4375 11.5625 -9.4375 11.5625 -11 10 C-9.78389183 6.35167549 -8.68563692 5.88114477 -5.5 3.875 C-2.5968522 2.13228203 -2.5968522 2.13228203 0 0 Z " fill="#E1D9D4" transform="translate(971,909)"/>
<path d="M0 0 C9.24 0 18.48 0 28 0 C23.08784238 4.91215762 20.91042711 5.17671876 14.25 5.3125 C8.20488232 5.29372634 4.78701735 4.64725132 0 1 C0 0.67 0 0.34 0 0 Z " fill="#ECDFDA" transform="translate(859,748)"/>
<path d="M0 0 C1.77388086 1.09926403 3.54399684 2.20460502 5.3125 3.3125 C6.79169922 4.23482422 6.79169922 4.23482422 8.30078125 5.17578125 C11 7 11 7 14 10 C8.06 10 2.12 10 -4 10 C-4.33 9.34 -4.66 8.68 -5 8 C-4.00390625 6.0546875 -4.00390625 6.0546875 -2.5625 3.875 C-2.08941406 3.15054688 -1.61632812 2.42609375 -1.12890625 1.6796875 C-0.75636719 1.12539063 -0.38382813 0.57109375 0 0 Z " fill="#DAD6D0" transform="translate(814,639)"/>
<path d="M0 0 C0.66 0 1.32 0 2 0 C3.85272826 3.12647895 4.61875267 5.37587724 4 9 C1.875 11.8125 1.875 11.8125 -1 14 C-2.98 14 -4.96 14 -7 14 C-4.69 9.38 -2.38 4.76 0 0 Z " fill="#DED8D2" transform="translate(990,883)"/>
<path d="M0 0 C3.19448727 0.0696979 3.95878065 0.25033549 6.625 2.25 C8.125 4.375 8.125 4.375 8.125 6.375 C2.845 6.375 -2.435 6.375 -7.875 6.375 C-4.92584746 0.47669492 -4.92584746 0.47669492 0 0 Z " fill="#D7D4CE" transform="translate(916.875,642.625)"/>
<path d="M0 0 C1.916588 -0.02712153 3.8332873 -0.04645097 5.75 -0.0625 C7.35101562 -0.07990234 7.35101562 -0.07990234 8.984375 -0.09765625 C11.53368501 -0.01510087 13.57933591 0.25382442 16 1 C16 1.99 16 2.98 16 4 C10.72 4 5.44 4 0 4 C0 2.68 0 1.36 0 0 Z " fill="#E3DAD5" transform="translate(1119,821)"/>
<path d="M0 0 C5.61 0 11.22 0 17 0 C17 0.66 17 1.32 17 2 C11.39 2.66 5.78 3.32 0 4 C0 2.68 0 1.36 0 0 Z " fill="#D8D5CE" transform="translate(1123,926)"/>
<path d="M0 0 C0.33 0 0.66 0 1 0 C2.15774649 4.63098598 3.19218189 10.61563621 1 15 C0.34 15 -0.32 15 -1 15 C-0.67 10.05 -0.34 5.1 0 0 Z " fill="#2E8069" transform="translate(974,553)"/>
<path d="M0 0 C2.64 0 5.28 0 8 0 C5.60490662 2.89932357 3.68754757 3.50168276 0 4 C0 2.68 0 1.36 0 0 Z " fill="#D5D3CD" transform="translate(1109,674)"/>
</svg>
